#!OML:ASF E:\VariousWalksJay\Project 1\Capture day 1\Session 1\Actor2.ASF
:FULLY-SPECIFIED
:DEGREES
626
root 1.0139 16.2669 19.9958 20.4052 -48.8628 -4.52084
lowerback 29.6902 -2.76925 4.05043
upperback 15.8904 -3.50276 -3.09227
thorax 1.31948 -1.67687 -4.773
lowerneck 1.11311 3.3618 3.91959
upperneck -16.5521 4.35563 -2.7468
head -5.00062 2.02558 -1.69437
rclavicle 3.02153e-014 -2.5842e-014
rhumerus -33.3039 26.0229 -82.6929
rradius 87.5495
rwrist 11.9278
rhand -44.0698 5.13195
rfingers 7.12502
rthumb -16.8884 -24.1537
lclavicle 3.02153e-014 -2.5842e-014
lhumerus 42.5056 -36.0392 40.1958
lradius 91.8635
lwrist 43.044
lhand -38.6541 4.68329
lfingers 7.12502
lthumb -11.6701 34.3383
rfemur -64.2746 0.13422 17.2262
rtibia 120.272
rfoot -15.1611 -3.02297
rtoes -28.4486
lfemur -51.7473 12.3838 -30.5361
ltibia 47.3737
lfoot -15.4657 3.55511
ltoes 5.79771
627
root 0.993305 16.1761 20.0436 19.5892 -48.8637 -4.26973
lowerback 30.5953 -2.805 4.02806
upperback 16.1526 -3.5578 -3.1377
thorax 1.22823 -1.71107 -4.77804
lowerneck 1.0688 3.34442 3.91581
upperneck -16.8332 4.3217 -2.77191
head -5.08054 2.00513 -1.704
rclavicle 5.24792e-014 3.45885e-014
rhumerus -32.3771 26.1649 -82.1086
rradius 89.2042
rwrist 11.6609
rhand -43.5176 4.6054
rfingers 7.12502
rthumb -16.3568 -24.7249
lclavicle 5.24792e-014 3.45885e-014
lhumerus 43.3496 -34.3414 39.8149
lradius 92.0868
lwrist 43.4197
lhand -38.6183 5.09094
lfingers 7.12502
lthumb -11.6356 34.7479
rfemur -66.6955 0.201444 17.1988
rtibia 121.349
rfoot -15.5835 -3.00281
rtoes -28.52
lfemur -51.8412 12.5733 -30.7745
ltibia 49.1204
lfoot -16.4569 3.57835
ltoes 5.39342
628
root 0.971074 16.0826 20.0924 18.7641 -48.8688 -4.0204
lowerback 31.8588 -2.86587 3.99483
upperback 16.2786 -3.60072 -3.34106
thorax 0.907753 -1.74618 -4.61416
lowerneck 1.02843 3.33232 3.90857
upperneck -17.0986 4.29858 -2.77346
head -5.1568 1.98898 -1.70603
rclavicle 6.36111e-015 -9.18385e-014
rhumerus -31.4297 26.3447 -81.5263
rradius 90.8298
rwrist 11.4039
rhand -42.9978 4.06604
rfingers 7.12502
rthumb -15.8562 -25.3047
lclavicle 6.36111e-015 -9.18385e-014
lhumerus 44.1433 -32.6364 39.5094
lradius 92.2708
lwrist 43.7706
lhand -38.5703 5.50556
lfingers 7.12502
lthumb -11.5892 35.1651
rfemur -69.0407 0.367458 17.1633
rtibia 122.04
rfoot -15.9324 -2.9582
rtoes -28.6326
lfemur -51.9073 12.7646 -31.0051
ltibia 50.8505
lfoot -17.4506 3.63712
ltoes 4.93195
629
root 0.947405 15.9867 20.1417 17.9424 -48.8687 -3.77704
lowerback 32.7946 -2.90964 3.95784
upperback 16.4944 -3.66692 -3.4059
thorax 0.792155 -1.78594 -4.61237
lowerneck 0.988999 3.31978 3.91361
upperneck -17.3446 4.27794 -2.76112
head -5.22735 1.97263 -1.70553
rclavicle -4.6118e-014 1.47101e-014
rhumerus -30.4641 26.5414 -80.947
rradius 92.4099
rwrist 11.1671
rhand -42.5089 3.50545
rfingers 7.12502
rthumb -15.3853 -25.9021
lclavicle -4.6118e-014 1.47101e-014
lhumerus 44.9165 -30.9496 39.2547
lradius 92.4091
lwrist 44.0987
lhand -38.5092 5.92924
lfingers 7.12502
lthumb -11.5303 35.5921
rfemur -71.2998 0.623408 17.1259
rtibia 122.351
rfoot -16.2325 -2.88396
rtoes -28.763
lfemur -51.9564 12.9372 -31.2185
ltibia 52.5608
lfoot -18.4401 3.74297
ltoes 4.435
630
root 0.922346 15.8885 20.1909 17.1323 -48.859 -3.53916
lowerback 33.7177 -2.9535 3.91124
upperback 16.6929 -3.73584 -3.47088
thorax 0.671546 -1.82734 -4.60478
lowerneck 0.953555 3.30682 3.92937
upperneck -17.5763 4.25899 -2.74059
head -5.29423 1.95603 -1.70415
rclavicle 3.18055e-015 -6.79844e-014
rhumerus -29.4743 26.7562 -80.3669
rradius 93.9328
rwrist 10.9444
rhand -42.0635 2.93573
rfingers 7.12502
rthumb -14.9563 -26.5042
lclavicle 3.18055e-015 -6.79844e-014
lhumerus 45.6726 -29.2879 39.0424
lradius 92.5004
lwrist 44.4247
lhand -38.4421 6.35355
lfingers 7.12502
lthumb -11.4657 36.02
rfemur -73.4593 0.967396 17.0824
rtibia 122.291
rfoot -16.4866 -2.79319
rtoes -28.9554
lfemur -51.9958 13.0711 -31.4099
ltibia 54.2504
lfoot -19.4201 3.90505
ltoes 3.94942
631
root 0.895656 15.7883 20.2395 16.3528 -48.86 -3.31388
lowerback 34.6188 -2.98047 3.83126
upperback 16.8722 -3.79404 -3.53128
thorax 0.549305 -1.86552 -4.57848
lowerneck 0.921273 3.29619 3.96051
upperneck -17.7985 4.24358 -2.72612
head -5.3582 1.94067 -1.70722
rclavicle 6.36111e-015 -2.42517e-014
rhumerus -28.4534 26.9912 -79.7844
rradius 95.3908
rwrist 10.7208
rhand -41.6467 2.33598
rfingers 7.12502
rthumb -14.5548 -27.1334
lclavicle 6.36111e-015 -2.42517e-014
lhumerus 46.4144 -27.6512 38.8714
lradius 92.5385
lwrist 44.7489
lhand -38.3589 6.7804
lfingers 7.12502
lthumb -11.3854 36.4513
rfemur -75.5214 1.41973 17.0318
rtibia 121.875
rfoot -16.7007 -2.69868
rtoes -29.1833
lfemur -52.0417 13.1713 -31.5767
ltibia 55.9206
lfoot -20.3883 4.12723
ltoes 3.4809
632
root 0.868312 15.6863 20.2879 15.6294 -48.8345 -3.11417
lowerback 35.4765 -3.01261 3.77048
upperback 17.0328 -3.85297 -3.58165
thorax 0.429627 -1.90264 -4.55286
lowerneck 0.894079 3.28138 3.99484
upperneck -18.0162 4.22195 -2.71744
head -5.42172 1.9224 -1.71237
rclavicle -2.06736e-014 4.77083e-014
rhumerus -27.4052 27.2254 -79.1927
rradius 96.7759
rwrist 10.4777
rhand -41.257 1.74479
rfingers 7.12502
rthumb -14.1793 -27.7513
lclavicle -2.06736e-014 4.77083e-014
lhumerus 47.1577 -26.0557 38.7379
lradius 92.5213
lwrist 45.0774
lhand -38.2648 7.21229
lfingers 7.12502
lthumb -11.2947 36.8882
rfemur -77.477 1.92606 16.9841
rtibia 121.116
rfoot -16.8899 -2.58857
rtoes -29.4611
lfemur -52.1072 13.186 -31.7016
ltibia 57.5719
lfoot -21.3386 4.41814
ltoes 3.01457
633
root 0.84005 15.5834 20.3371 14.9739 -48.8053 -2.96106
lowerback 36.2955 -3.0414 3.73749
upperback 17.1766 -3.9 -3.6292
thorax 0.312338 -1.9318 -4.5438
lowerneck 0.877123 3.26023 4.05083
upperneck -18.2346 4.1913 -2.72184
head -5.48679 1.89905 -1.725
rclavicle -6.36111e-015 3.73715e-014
rhumerus -26.3354 27.4388 -78.6051
rradius 98.0972
rwrist 10.1725
rhand -40.8548 1.15776
rfingers 7.12502
rthumb -13.7917 -28.3651
lclavicle -6.36111e-015 3.73715e-014
lhumerus 47.9102 -24.5113 38.6378
lradius 92.4508
lwrist 45.4281
lhand -38.1498 7.64682
lfingers 7.12502
lthumb -11.1838 37.3288
rfemur -79.2981 2.49995 16.9426
rtibia 120.029
rfoot -17.0647 -2.47244
rtoes -29.7565
lfemur -52.1845 13.1229 -31.7699
ltibia 59.204
lfoot -22.2761 4.78247
ltoes 2.55081
634
root 0.810957 15.4806 20.3872 14.3969 -48.7853 -2.85928
lowerback 37.0745 -3.0605 3.71809
upperback 17.3012 -3.93089 -3.66528
thorax 0.195731 -1.95248 -4.53621
lowerneck 0.865307 3.23422 4.10579
upperneck -18.4508 4.15195 -2.73905
head -5.55216 1.87232 -1.74114
rclavicle -3.18055e-015 8.34896e-015
rhumerus -25.2412 27.6425 -78.0086
rradius 99.3485
rwrist 9.80631
rhand -40.4288 0.599291
rfingers 7.12502
rthumb -13.3811 -28.951
lclavicle -3.18055e-015 8.34896e-015
lhumerus 48.6566 -23.0149 38.5651
lradius 92.3322
lwrist 45.8152
lhand -38.0265 8.07396
lfingers 7.12502
lthumb -11.0649 37.7623
rfemur -80.9761 3.13445 16.9084
rtibia 118.63
rfoot -17.2268 -2.36011
rtoes -30.0464
lfemur -52.2768 12.9901 -31.7849
ltibia 60.8111
lfoot -23.1966 5.21174
ltoes 2.09201
635
root 0.781184 15.3782 20.4388 13.8979 -48.7809 -2.8007
lowerback 37.8016 -3.076 3.72241
upperback 17.4114 -3.95065 -3.70183
thorax 0.0859507 -1.96578 -4.54702
lowerneck 0.860842 3.20326 4.15536
upperneck -18.6706 4.10476 -2.76111
head -5.62028 1.8423 -1.75776
rclavicle 5.88403e-014 -8.38871e-014
rhumerus -24.1233 27.8299 -77.4149
rradius 100.529
rwrist 9.37948
rhand -39.9702 0.0659731
rfingers 7.12502
rthumb -12.939 -29.5129
lclavicle 5.88403e-014 -8.38871e-014
lhumerus 49.3961 -21.5664 38.5291
lradius 92.1671
lwrist 46.2285
lhand -37.8873 8.5027
lfingers 7.12502
lthumb -10.9306 38.1982
rfemur -82.5057 3.81251 16.8727
rtibia 116.949
rfoot -17.3889 -2.26148
rtoes -30.3345
lfemur -52.3872 12.7899 -31.7599
ltibia 62.3864
lfoot -24.0991 5.71102
ltoes 1.59297
636
root 0.750619 15.2775 20.4919 13.4788 -48.8033 -2.77327
lowerback 38.4664 -3.07784 3.73373
upperback 17.5097 -3.95265 -3.73922
thorax -0.0113198 -1.96941 -4.57071
lowerneck 0.852971 3.16663 4.20793
upperneck -18.8914 4.04808 -2.79138
head -5.68833 1.80782 -1.77697
rclavicle 5.00937e-014 3.10104e-014
rhumerus -22.9801 27.9938 -76.8254
rradius 101.635
rwrist 8.90127
rhand -39.4873 -0.429001
rfingers 7.12502
rthumb -12.4735 -30.0368
lclavicle 5.00937e-014 3.10104e-014
lhumerus 50.1322 -20.1664 38.5148
lradius 91.9627
lwrist 46.6801
lhand -37.7356 8.92583
lfingers 7.12502
lthumb -10.7842 38.629
rfemur -83.8944 4.51907 16.8374
rtibia 115.007
rfoot -17.5421 -2.2168
rtoes -30.6518
lfemur -52.522 12.5371 -31.7124
ltibia 63.9168
lfoot -24.9784 6.27352
ltoes 1.053
637
root 0.719488 15.1794 20.5469 13.1273 -48.8574 -2.75948
lowerback 39.1795 -3.06988 3.7439
upperback 17.4866 -3.93876 -3.77938
thorax -0.0938881 -1.96346 -4.61306
lowerneck 0.839205 3.12504 4.28635
upperneck -19.1144 3.98286 -2.83785
head -5.75562 1.76825 -1.80507
rclavicle -3.81667e-014 4.25399e-014
rhumerus -21.8157 28.1245 -76.2518
rradius 102.661
rwrist 8.40903
rhand -38.9897 -0.902958
rfingers 7.12502
rthumb -11.9937 -30.5393
lclavicle -3.81667e-014 4.25399e-014
lhumerus 50.869 -18.8178 38.5035
lradius 91.7287
lwrist 47.1798
lhand -37.5799 9.32229
lfingers 7.12502
lthumb -10.634 39.0332
rfemur -85.1347 5.2288 16.7993
rtibia 112.831
rfoot -17.6834 -2.22995
rtoes -30.9146
lfemur -52.6742 12.2415 -31.6621
ltibia 65.3881
lfoot -25.8285 6.88153
ltoes 0.547712
638
root 0.687555 15.085 20.6035 12.8254 -48.9538 -2.73676
lowerback 39.7179 -3.03364 3.71193
upperback 17.5672 -3.91239 -3.82273
thorax -0.163878 -1.95482 -4.63552
lowerneck 0.830399 3.08981 4.34755
upperneck -19.3485 3.92289 -2.89799
head -5.82718 1.73322 -1.83518
rclavicle 3.97569e-015 -5.64548e-014
rhumerus -20.617 28.2704 -75.6696
rradius 103.602
rwrist 7.92903
rhand -38.5099 -1.37038
rfingers 7.12502
rthumb -11.531 -31.0332
lclavicle 3.97569e-015 -5.64548e-014
lhumerus 51.5648 -17.4972 38.5189
lradius 91.4677
lwrist 47.7006
lhand -37.4338 9.6854
lfingers 7.12502
lthumb -10.4932 39.4035
rfemur -86.2244 5.93231 16.756
rtibia 110.443
rfoot -17.7939 -2.337
rtoes -31.1491
lfemur -52.8357 11.9255 -31.6317
ltibia 66.7862
lfoot -26.6431 7.53186
ltoes 0.0349365
